# xmcd
#
# Track frame offsets:
#	150
#	19502
#	33170
#	49065
#	62040
#	77935
#	93217
#	115262
#	131815
#	143882
#
# Disc length: 2124
#
# Revision: 2
# Processed by: cddbd v1.5.1PL0 Copyright (c) Steve Scherf et al.
# Submitted via: CDWizzard Release:4.35
# Normalized: r1:TSWAP
#
DISCID=80084a0a
DTITLE=Various Artist - Floor Fillin, Two Steppin', Honky Tonk Hits Vol. 3
DYEAR=1900
DGENRE=
TTITLE0=Pirates Of The Mississippi - Dream You
TTITLE1=Tanya Tucker - Tail Of Tears
TTITLE2=Ricky Lynn Gregg - Three Nickels And A Dime
TTITLE3=Chris LeDoux - Cowboy's Like A Little Rock And Roll
TTITLE4=Charlie Floyd - Mama Raised Me Righ
TTITLE5=John Anderson - Who's Lovin' My Baby Tonight
TTITLE6=Ronnie Milsap - True Believer
TTITLE7=Dan Seals - Bop
TTITLE8=Highway 101 - Fastest Healin' Broken Heart
TTITLE9=Suzy Bogguss - Other Side Of The Hill
EXTD=
EXTT0=
EXTT1=
EXTT2=
EXTT3=
EXTT4=
EXTT5=
EXTT6=
EXTT7=
EXTT8=
EXTT9=
PLAYORDER=
